<?xml version="1.0" encoding="UTF-8"?>
<svg width="33px" height="43px" viewBox="0 0 33 43" version="1.1" xmlns="http://www.w3.org/2000/svg" xmlns:xlink="http://www.w3.org/1999/xlink">
    <!-- Generator: Sketch 62 (91390) - https://sketch.com -->
    <title>NextBtn</title>
    <desc>Created with Sketch.</desc>
    <g id="Page-1" stroke="none" stroke-width="1" fill="none" fill-rule="evenodd">
        <g id="Mobile" transform="translate(-193.000000, -486.000000)" fill="#000000">
            <g id="BtnsWrapper" transform="translate(94.000000, 486.000000)">
                <g id="NextBtn" transform="translate(99.000000, 0.000000)">
                    <path d="M2.61970717,18.1411234 C14.0116314,4.40765898 20.6383956,-1.52827104 22.5,0.333333333 C25.5,3.33333333 7,16.8333333 7,21.3333333 C7,25.8333333 25.5,39.3333333 22.5,42.3333333 C20.6383957,44.1949376 14.0116319,38.2590082 2.6197087,24.5255451 L2.61970719,24.5255464 C1.08417256,22.674392 1.08417255,19.9922777 2.61970717,18.1411234 Z" id="Path-2" transform="translate(11.414531, 21.333333) scale(-1, 1) translate(-11.414531, -21.333333) "></path>
                    <path d="M13.6197072,18.1411234 C25.0116314,4.40765898 31.6383956,-1.52827104 33.5,0.333333333 C36.5,3.33333333 18,16.8333333 18,21.3333333 C18,25.8333333 36.5,39.3333333 33.5,42.3333333 C31.6383957,44.1949376 25.0116319,38.2590082 13.6197087,24.5255451 L13.6197072,24.5255464 C12.0841726,22.674392 12.0841726,19.9922777 13.6197072,18.1411234 Z" id="Path-2" transform="translate(22.414531, 21.333333) scale(-1, 1) translate(-22.414531, -21.333333) "></path>
                </g>
            </g>
        </g>
    </g>
</svg>