<?xml version="1.0" encoding="UTF-8"?>
<svg width="24px" height="24px" viewBox="0 0 24 24" version="1.1" xmlns="http://www.w3.org/2000/svg" xmlns:xlink="http://www.w3.org/1999/xlink">
    <!-- Generator: Sketch 62 (91390) - https://sketch.com -->
    <title>FQLogo</title>
    <desc>Created with Sketch.</desc>
    <g id="Page-1" stroke="none" stroke-width="1" fill="none" fill-rule="evenodd">
        <g id="FQLogo">
            <rect id="Rectangle" fill="#000000" x="0" y="0" width="24" height="24" rx="12"></rect>
            <path d="M8.35294118,18 C10.0294118,18 11.3529412,16.741573 11.3529412,15.0786517 C11.3529412,13.8202247 10.5588235,12.7865169 9.36764706,12.4719101 C8,12.1573034 7.95588235,12.1123596 7.95588235,11.3932584 C7.95588235,9.82022472 9.10294118,8.33707865 11.3088235,7.07865169 L10.4264706,6 C7.02941176,7.61797753 5,10.6292135 5,13.9550562 C5,16.2921348 6.41176471,18 8.35294118,18 Z M16,18 C17.6764706,18 19,16.741573 19,15.0786517 C19,13.8202247 18.2058824,12.7865169 17.0147059,12.4719101 C15.6470588,12.1573034 15.6029412,12.1123596 15.6029412,11.3932584 C15.6029412,9.82022472 16.75,8.33707865 18.9558824,7.07865169 L18.0735294,6 C14.6764706,7.61797753 12.6470588,10.6292135 12.6470588,13.9550562 C12.6470588,16.2921348 14.0588235,18 16,18 Z" id="“" fill="#FFFFFF" fill-rule="nonzero"></path>
        </g>
    </g>
</svg>